<?xml version="1.0" encoding="UTF-8"?>
<svg id="Capa_1" data-name="Capa 1" xmlns="http://www.w3.org/2000/svg" version="1.1" viewBox="0 0 445.78 136.42">
  <defs>
    <style>
      .cls-1 {
        fill: #3c3c3b;
      }

      .cls-1, .cls-2, .cls-3, .cls-4 {
        stroke-width: 0px;
      }

      .cls-2 {
        fill: #f9b90e;
      }

      .cls-3 {
        fill: #b18630;
      }

      .cls-4 {
        fill: #edecec;
      }
    </style>
  </defs>
  <g>
    <rect class="cls-4" x="22.58" y="22.19" width="360.08" height="90.03" rx="10.42" ry="10.42"/>
    <circle class="cls-2" cx="367.62" cy="67.21" r="57.28"/>
    <g>
      <path class="cls-3" d="M56.16,49.49c-.32-2.4-2.43-2.71-4.57-2.81-2.18-.09-4.35.54-4.23,2.27.32,4.07,13.47.95,13.53,9.15,0,5.08-5.49,5.55-8.83,5.55-5.39,0-9.59-1.89-9.62-6.75h4.76c.06,2.02,2.21,2.93,4.42,2.93s4.67-.25,4.54-1.92c-.35-3.91-12.99-.66-13.44-8.52-.25-4.04,2.52-6.59,8.83-6.59,5.58,0,9.02,2.24,9.3,6.69h-4.7Z"/>
      <path class="cls-3" d="M78.23,58.47c-.47,4.19-4.42,4.95-7.82,4.95-5.01,0-8.61-2.33-8.61-8.14,0-2.52,1.17-7.85,8.48-7.85,5.71,0,8.23,3.41,8.17,9.02h-12.4c.06,2.02,1.39,3.5,4.48,3.5,2.15,0,3.38-.57,3.66-1.48h4.04ZM74.13,54.31c-.19-1.99-1.45-3.12-4.13-3.12-2.11,0-3.53,1.23-3.85,3.12h7.98Z"/>
      <path class="cls-3" d="M91.86,57.72l4.64-.06c-.63,4.79-4.48,5.93-8.48,5.93-4.7,0-8.64-2.24-8.64-8.01,0-4.73,2.74-8.01,8.64-8.01,5.46,0,8.04,2.55,8.55,6.47h-4.48c-.38-2.27-1.99-2.71-4.07-2.71-2.43,0-4.13.95-4.13,4.26s1.74,4.23,4.13,4.23c1.64,0,3.41-.28,3.85-2.08Z"/>
      <path class="cls-3" d="M98.73,47.69h4.57l.03,4.29c.69-3,2.78-4.42,4.89-4.42h2.4v4.13l-3.25.09c-2.05.06-3.94,2.18-3.94,4.45v7.19h-4.7v-15.74Z"/>
      <path class="cls-3" d="M127.11,58.47c-.47,4.19-4.42,4.95-7.82,4.95-5.01,0-8.61-2.33-8.61-8.14,0-2.52,1.17-7.85,8.48-7.85,5.71,0,8.23,3.41,8.17,9.02h-12.4c.06,2.02,1.39,3.5,4.48,3.5,2.15,0,3.38-.57,3.66-1.48h4.04ZM123.01,54.31c-.19-1.99-1.45-3.12-4.13-3.12-2.11,0-3.53,1.23-3.85,3.12h7.98Z"/>
      <path class="cls-3" d="M137.39,63.39l-2.87.03c-2.43,0-4.51-.66-4.51-3.85v-8.26h-2.49v-3.63h2.59v-4.26h4.61v4.26h3.19v3.63h-3.19v6.59c0,1.77.28,1.8,2.68,1.7v3.78Z"/>
      <path class="cls-3" d="M149.66,60.56c-.66,1.89-2.24,2.9-4.23,3.15-3.03.38-6.62-.85-6.91-4.29-.35-4.13,3.06-5.33,6.78-5.33h4.35v-1.51c0-1.17-.95-1.86-3.03-1.86-1.86-.03-2.93.6-2.93,1.96h-4.16c-.16-3.94,3.09-5.36,6.97-5.36,4.32,0,7.76,1.39,7.76,4.86v6.94c0,.79.28,1.29,1.04,1.29h.19v3.03h-2.52c-1.42,0-3.22-.79-3.31-2.87ZM145.62,60.65c1.7-.03,3.82-1.23,4.04-2.9v-1.1l-3.69.03c-1.7.03-2.9.38-3,1.96-.09,1.61,1.17,2.05,2.65,2.02Z"/>
      <path class="cls-3" d="M157.26,47.69h4.57l.03,4.29c.69-3,2.78-4.42,4.89-4.42h2.4v4.13l-3.25.09c-2.05.06-3.94,2.18-3.94,4.45v7.19h-4.7v-15.74Z"/>
      <path class="cls-3" d="M170.53,63.43v-15.74h4.7v15.74h-4.7ZM171.32,45.95l3.94-3.66h5.2l-6.15,3.66h-3Z"/>
      <path class="cls-3" d="M188.32,60.56c-.66,1.89-2.24,2.9-4.23,3.15-3.03.38-6.62-.85-6.91-4.29-.35-4.13,3.06-5.33,6.78-5.33h4.35v-1.51c0-1.17-.95-1.86-3.03-1.86-1.86-.03-2.93.6-2.93,1.96h-4.16c-.16-3.94,3.09-5.36,6.97-5.36,4.32,0,7.76,1.39,7.76,4.86v6.94c0,.79.28,1.29,1.04,1.29h.19v3.03h-2.52c-1.42,0-3.22-.79-3.31-2.87ZM184.28,60.65c1.7-.03,3.82-1.23,4.04-2.9v-1.1l-3.69.03c-1.7.03-2.9.38-3,1.96-.09,1.61,1.17,2.05,2.65,2.02Z"/>
      <path class="cls-3" d="M213.8,63.43v-3.06c-.82,2.08-3.53,3.22-5.01,3.22-4.73,0-7.6-3.19-7.6-8.01s2.87-8.01,7.6-8.01c1.45,0,4.01.85,4.92,3.09v-9.71h4.7v22.49h-4.61ZM213.74,55.57c0-2.33-1.45-4.26-3.91-4.26s-3.91,1.92-3.91,4.26,1.48,4.23,3.91,4.23,3.91-1.92,3.91-4.23Z"/>
      <path class="cls-3" d="M236.73,58.47c-.47,4.19-4.42,4.95-7.82,4.95-5.01,0-8.61-2.33-8.61-8.14,0-2.52,1.17-7.85,8.48-7.85,5.71,0,8.23,3.41,8.17,9.02h-12.4c.06,2.02,1.39,3.5,4.48,3.5,2.15,0,3.38-.57,3.66-1.48h4.04ZM232.63,54.31c-.19-1.99-1.45-3.12-4.13-3.12-2.11,0-3.53,1.23-3.85,3.12h7.98Z"/>
      <path class="cls-3" d="M43.61,92.86v-20.31h10.98c6.62,0,9.65,4.19,9.65,10.16s-3.25,10.16-9.9,10.16h-10.72ZM48.43,89.01l5.74-.03c3.38,0,5.27-1.89,5.27-6.28s-2.14-6.31-5.49-6.31h-5.52v12.62Z"/>
      <path class="cls-3" d="M81.39,87.91c-.47,4.19-4.42,4.95-7.82,4.95-5.01,0-8.61-2.33-8.61-8.14,0-2.52,1.17-7.85,8.48-7.85,5.71,0,8.23,3.41,8.17,9.02h-12.4c.06,2.02,1.39,3.5,4.48,3.5,2.15,0,3.38-.57,3.66-1.48h4.04ZM77.29,83.74c-.19-1.99-1.45-3.12-4.13-3.12-2.11,0-3.53,1.23-3.85,3.12h7.98Z"/>
      <path class="cls-3" d="M94.22,81.98c-.19-1.32-1.54-1.73-3.75-1.73-1.89-.03-3.47.6-3.22,1.83.44,2.33,11.13-.22,11.07,6.02-.03,4.29-4.35,4.98-7.35,4.98-4.57,0-8.04-1.42-8.11-5.42h4.04c.06,1.45,2.59,1.8,3.79,1.83.73.03,3.63-.09,3.63-1.36,0-2.49-11.23.13-11.23-6.43,0-3.06,2.27-4.98,7.44-4.98,4.48,0,7.32,1.51,7.57,5.27h-3.88Z"/>
      <path class="cls-3" d="M110.68,89.99c-.66,1.89-2.24,2.9-4.23,3.15-3.03.38-6.62-.85-6.91-4.29-.35-4.13,3.06-5.33,6.78-5.33h4.35v-1.51c0-1.17-.95-1.86-3.03-1.86-1.86-.03-2.93.6-2.93,1.96h-4.16c-.16-3.94,3.09-5.36,6.97-5.36,4.32,0,7.76,1.39,7.76,4.86v6.94c0,.79.28,1.29,1.04,1.29h.19v3.03h-2.52c-1.42,0-3.22-.79-3.31-2.87ZM106.64,90.08c1.7-.03,3.82-1.23,4.04-2.9v-1.1l-3.69.03c-1.7.03-2.9.38-3,1.96-.09,1.61,1.17,2.05,2.65,2.02Z"/>
      <path class="cls-3" d="M118.28,77.12h4.57l.03,4.29c.69-3,2.78-4.42,4.89-4.42h2.4v4.13l-3.25.09c-2.05.06-3.94,2.18-3.94,4.45v7.19h-4.7v-15.74Z"/>
      <path class="cls-3" d="M131.53,77.12h4.57l.03,4.29c.69-3,2.78-4.42,4.89-4.42h2.4v4.13l-3.25.09c-2.05.06-3.94,2.18-3.94,4.45v7.19h-4.7v-15.74Z"/>
      <path class="cls-3" d="M152.12,76.99c5.9,0,8.61,3.31,8.61,8.01,0,5.77-3.85,8.01-8.61,8.01s-8.64-2.24-8.64-8.01c0-4.73,2.74-8.01,8.64-8.01ZM156.25,85.01c0-3.31-1.7-4.26-4.13-4.26s-4.13.95-4.13,4.26,1.73,4.23,4.13,4.23,4.13-.95,4.13-4.23Z"/>
      <path class="cls-3" d="M162.62,92.86v-22.58h4.7v22.58h-4.7Z"/>
      <path class="cls-3" d="M170.38,92.86v-22.58h4.7v22.58h-4.7Z"/>
      <path class="cls-3" d="M185.64,76.99c5.9,0,8.61,3.31,8.61,8.01,0,5.77-3.85,8.01-8.61,8.01s-8.64-2.24-8.64-8.01c0-4.73,2.74-8.01,8.64-8.01ZM189.77,85.01c0-3.31-1.7-4.26-4.13-4.26s-4.13.95-4.13,4.26,1.73,4.23,4.13,4.23,4.13-.95,4.13-4.23Z"/>
      <path class="cls-3" d="M215.25,78.92c-.32-2.4-2.43-2.71-4.57-2.81-2.18-.09-4.35.54-4.23,2.27.32,4.07,13.47.95,13.53,9.15,0,5.08-5.49,5.55-8.83,5.55-5.39,0-9.59-1.89-9.62-6.75h4.76c.06,2.02,2.21,2.93,4.42,2.93s4.67-.25,4.54-1.92c-.35-3.91-12.99-.66-13.44-8.52-.25-4.04,2.52-6.59,8.83-6.59,5.58,0,9.02,2.24,9.3,6.69h-4.7Z"/>
      <path class="cls-3" d="M229.54,76.99c5.9,0,8.61,3.31,8.61,8.01,0,5.77-3.85,8.01-8.61,8.01s-8.64-2.24-8.64-8.01c0-4.73,2.74-8.01,8.64-8.01ZM233.67,85.01c0-3.31-1.7-4.26-4.13-4.26s-4.13.95-4.13,4.26,1.73,4.23,4.13,4.23,4.13-.95,4.13-4.23Z"/>
      <path class="cls-3" d="M251.49,87.15l4.64-.06c-.63,4.79-4.48,5.93-8.48,5.93-4.7,0-8.64-2.24-8.64-8.01,0-4.73,2.74-8.01,8.64-8.01,5.46,0,8.04,2.55,8.55,6.47h-4.48c-.38-2.27-1.99-2.71-4.07-2.71-2.43,0-4.13.95-4.13,4.26s1.74,4.23,4.13,4.23c1.64,0,3.41-.28,3.85-2.08Z"/>
      <path class="cls-3" d="M260.76,70.5c1.96,0,2.81,1.36,2.81,2.37s-.73,2.49-2.81,2.49-2.84-1.45-2.84-2.43.82-2.43,2.84-2.43ZM258.39,92.86v-15.77h4.7v15.77h-4.7Z"/>
      <path class="cls-3" d="M276.18,89.99c-.66,1.89-2.24,2.9-4.23,3.15-3.03.38-6.62-.85-6.91-4.29-.35-4.13,3.06-5.33,6.78-5.33h4.35v-1.51c0-1.17-.95-1.86-3.03-1.86-1.86-.03-2.93.6-2.93,1.96h-4.16c-.16-3.94,3.09-5.36,6.97-5.36,4.32,0,7.76,1.39,7.76,4.86v6.94c0,.79.28,1.29,1.04,1.29h.19v3.03h-2.52c-1.42,0-3.22-.79-3.31-2.87ZM272.14,90.08c1.7-.03,3.82-1.23,4.04-2.9v-1.1l-3.69.03c-1.7.03-2.9.38-3,1.96-.09,1.61,1.17,2.05,2.65,2.02Z"/>
      <path class="cls-3" d="M283.78,92.86v-22.58h4.7v22.58h-4.7Z"/>
    </g>
  </g>
  <g>
    <path class="cls-1" d="M395.84,79.41l-19.97-5.81v-1.71h5.13c4.31,0,7.81-3.5,7.81-7.81v-17.33c0-11.69-9.51-21.2-21.2-21.2s-21.2,9.51-21.2,21.2v17.33c0,4.31,3.5,7.81,7.81,7.81h5.13v1.71l-19.98,5.81c-3,.91-5.01,3.63-5.01,6.76v15.03h2.23v-15.03c0-2.14,1.38-4,3.42-4.62l12.21-3.55v13.3h6.28l9.12,9.99,9.12-9.99h6.28v-13.3l12.19,3.54c2.05.62,3.43,2.48,3.43,4.63v15.03h2.23v-15.03c0-3.13-2.01-5.85-5.03-6.77ZM371.29,68.04s-.05.01-.07.02c-.17.05-.33.1-.5.14-.02,0-.04.01-.06.02-.18.05-.36.09-.54.12-.04,0-.08.02-.12.02-.14.03-.29.05-.43.08-.05,0-.1.02-.15.02-.18.03-.36.05-.54.07-.03,0-.06,0-.1,0-.15.01-.31.03-.47.04-.05,0-.1,0-.15,0-.19,0-.37.01-.56.01s-.37,0-.56-.01c-.05,0-.1,0-.15,0-.16,0-.31-.02-.47-.04-.03,0-.06,0-.1,0-.18-.02-.36-.04-.54-.07-.05,0-.1-.02-.15-.02-.14-.02-.29-.05-.43-.08-.04,0-.08-.02-.12-.02-.18-.04-.36-.08-.54-.12-.02,0-.04-.01-.06-.02-.17-.04-.34-.09-.5-.14-.02,0-.05-.01-.07-.02-4.98-1.57-8.6-6.22-8.6-11.71v-7.59c0-4.11,3.07-7.51,7.04-8.04.61,7.61,6.99,13.62,14.76,13.62h2.75v2.01c0,5.49-3.62,10.15-8.6,11.71ZM354.23,69.67c-3.08,0-5.58-2.5-5.58-5.58v-17.33c0-10.46,8.51-18.97,18.97-18.97s18.97,8.51,18.97,18.97v17.33c0,3.08-2.5,5.58-5.58,5.58h-5.13v-1.42c3.77-2.62,6.25-6.99,6.25-11.92v-4.24h-4.98c-6.93,0-12.57-5.64-12.57-12.57v-1.12h-1.12c-5.7,0-10.34,4.64-10.34,10.34v7.59c0,4.93,2.48,9.3,6.25,11.92v1.42h-5.13ZM359.48,89.08h-5.03v-11.72l5.3-1.54,5.52,19.6-5.79-6.34ZM367.62,95.53l-6.03-21.4v-4.6h0c.55.25,1.12.47,1.7.65,0,0,.01,0,.02,0,.09.03.18.06.27.08.03,0,.06.02.1.03.08.02.15.04.23.06.05.01.1.03.15.04.06.02.13.03.19.05.06.01.12.03.18.04.06.01.11.02.17.04.07.01.14.03.21.04.05,0,.1.02.15.03.08.01.16.03.23.04.05,0,.09.02.14.02.08.01.17.03.25.04.04,0,.08.01.12.02.09.01.17.02.26.03.04,0,.08,0,.12.01.09,0,.18.02.27.03.04,0,.08,0,.11.01.09,0,.18.01.27.02.04,0,.07,0,.11,0,.09,0,.19,0,.28.01.03,0,.07,0,.1,0,.13,0,.26,0,.38,0s.26,0,.38,0c.03,0,.07,0,.1,0,.09,0,.19,0,.28-.01.04,0,.07,0,.11,0,.09,0,.18-.01.27-.02.04,0,.08,0,.11-.01.09,0,.18-.02.27-.03.04,0,.08,0,.12-.01.09,0,.17-.02.26-.03.04,0,.08-.01.12-.02.08-.01.17-.02.25-.04.05,0,.09-.01.14-.02.08-.01.16-.03.23-.04.05,0,.1-.02.15-.03.07-.01.14-.03.21-.04.06-.01.11-.02.17-.04.06-.01.12-.03.18-.04.06-.02.13-.03.19-.05.05-.01.1-.03.15-.04.08-.02.15-.04.23-.06.03,0,.06-.02.1-.03.09-.03.18-.05.28-.08,0,0,.01,0,.02,0,.58-.18,1.15-.4,1.7-.65v4.6l-6.03,21.4ZM380.78,89.08h-5.03l-5.79,6.34,5.52-19.6,5.3,1.54v11.72Z"/>
    <rect class="cls-1" x="344.78" y="92.43" width="2.23" height="8.78"/>
    <rect class="cls-1" x="388.22" y="92.43" width="2.23" height="8.78"/>
  </g>
</svg>