<?xml version="1.0" encoding="UTF-8"?>
<svg id="Capa_1" data-name="Capa 1" xmlns="http://www.w3.org/2000/svg" version="1.1" viewBox="0 0 445.78 136.42">
  <defs>
    <style>
      .cls-1 {
        fill: #ffff;
      }

      .cls-1, .cls-2, .cls-3, .cls-4 {
        stroke-width: 0px;
      }

      .cls-2 {
        fill: #6d0205;
      }

      .cls-3 {
        fill: #6d0205;
      }

      .cls-4 {
        fill: #edecec;
      }
    </style>
  </defs>
  <g>
    <rect class="cls-4" x="22.58" y="22.19" width="360.08" height="90.03" rx="10.42" ry="10.42"/>
    <circle class="cls-2" cx="367.62" cy="67.21" r="57.28"/>
    <g>
      <path class="cls-3" d="M59.48,49.49c-.32-2.4-2.43-2.71-4.57-2.81-2.18-.09-4.35.54-4.23,2.27.32,4.07,13.47.95,13.53,9.15,0,5.08-5.49,5.55-8.83,5.55-5.39,0-9.59-1.89-9.62-6.75h4.76c.06,2.02,2.21,2.93,4.42,2.93s4.67-.25,4.54-1.92c-.35-3.91-12.99-.66-13.44-8.52-.25-4.04,2.52-6.59,8.83-6.59,5.58,0,9.02,2.24,9.3,6.69h-4.7Z"/>
      <path class="cls-3" d="M81.56,58.47c-.47,4.2-4.42,4.95-7.82,4.95-5.01,0-8.61-2.33-8.61-8.14,0-2.52,1.17-7.85,8.48-7.85,5.71,0,8.23,3.41,8.17,9.02h-12.4c.06,2.02,1.39,3.5,4.48,3.5,2.15,0,3.38-.57,3.66-1.48h4.04ZM77.46,54.31c-.19-1.99-1.45-3.12-4.13-3.12-2.11,0-3.53,1.23-3.85,3.12h7.98Z"/>
      <path class="cls-3" d="M95.18,57.72l4.64-.06c-.63,4.79-4.48,5.93-8.48,5.93-4.7,0-8.64-2.24-8.64-8.01,0-4.73,2.74-8.01,8.64-8.01,5.46,0,8.04,2.55,8.55,6.47h-4.48c-.38-2.27-1.99-2.71-4.07-2.71-2.43,0-4.13.95-4.13,4.26s1.74,4.23,4.13,4.23c1.64,0,3.41-.28,3.85-2.08Z"/>
      <path class="cls-3" d="M102.05,47.69h4.57l.03,4.29c.69-3,2.78-4.42,4.89-4.42h2.4v4.13l-3.25.09c-2.05.06-3.94,2.18-3.94,4.45v7.19h-4.7v-15.74Z"/>
      <path class="cls-3" d="M130.44,58.47c-.47,4.2-4.42,4.95-7.82,4.95-5.01,0-8.61-2.33-8.61-8.14,0-2.52,1.17-7.85,8.48-7.85,5.71,0,8.23,3.41,8.17,9.02h-12.4c.06,2.02,1.39,3.5,4.48,3.5,2.15,0,3.38-.57,3.66-1.48h4.04ZM126.34,54.31c-.19-1.99-1.45-3.12-4.13-3.12-2.11,0-3.53,1.23-3.85,3.12h7.98Z"/>
      <path class="cls-3" d="M140.72,63.39l-2.87.03c-2.43,0-4.51-.66-4.51-3.85v-8.26h-2.49v-3.63h2.59v-4.26h4.61v4.26h3.19v3.63h-3.19v6.59c0,1.77.28,1.8,2.68,1.7v3.78Z"/>
      <path class="cls-3" d="M152.99,60.56c-.66,1.89-2.24,2.9-4.23,3.15-3.03.38-6.62-.85-6.91-4.29-.35-4.13,3.06-5.33,6.78-5.33h4.35v-1.51c0-1.17-.95-1.86-3.03-1.86-1.86-.03-2.93.6-2.93,1.96h-4.16c-.16-3.94,3.09-5.36,6.97-5.36,4.32,0,7.76,1.39,7.76,4.86v6.94c0,.79.28,1.29,1.04,1.29h.19v3.03h-2.52c-1.42,0-3.22-.79-3.31-2.87ZM148.95,60.65c1.7-.03,3.82-1.23,4.04-2.9v-1.1l-3.69.03c-1.7.03-2.9.38-3,1.96-.09,1.61,1.17,2.05,2.65,2.02Z"/>
      <path class="cls-3" d="M160.58,47.69h4.57l.03,4.29c.69-3,2.78-4.42,4.89-4.42h2.4v4.13l-3.25.09c-2.05.06-3.94,2.18-3.94,4.45v7.19h-4.7v-15.74Z"/>
      <path class="cls-3" d="M173.86,63.43v-15.74h4.7v15.74h-4.7ZM174.65,45.95l3.94-3.66h5.2l-6.15,3.66h-3Z"/>
      <path class="cls-3" d="M191.65,60.56c-.66,1.89-2.24,2.9-4.23,3.15-3.03.38-6.62-.85-6.91-4.29-.35-4.13,3.06-5.33,6.78-5.33h4.35v-1.51c0-1.17-.95-1.86-3.03-1.86-1.86-.03-2.93.6-2.93,1.96h-4.16c-.16-3.94,3.09-5.36,6.97-5.36,4.32,0,7.76,1.39,7.76,4.86v6.94c0,.79.28,1.29,1.04,1.29h.19v3.03h-2.52c-1.42,0-3.22-.79-3.31-2.87ZM187.61,60.65c1.7-.03,3.82-1.23,4.04-2.9v-1.1l-3.69.03c-1.7.03-2.9.38-3,1.96-.09,1.61,1.17,2.05,2.65,2.02Z"/>
      <path class="cls-3" d="M46.93,92.86v-20.31h4.83v16.46l10.44-.03v3.88h-15.26Z"/>
      <path class="cls-3" d="M70.99,76.99c5.9,0,8.61,3.31,8.61,8.01,0,5.77-3.85,8.01-8.61,8.01s-8.64-2.24-8.64-8.01c0-4.73,2.74-8.01,8.64-8.01ZM75.12,85.01c0-3.31-1.7-4.26-4.13-4.26s-4.13.95-4.13,4.26,1.73,4.23,4.13,4.23,4.13-.95,4.13-4.23Z"/>
      <path class="cls-3" d="M92.94,87.15l4.64-.06c-.63,4.79-4.48,5.93-8.48,5.93-4.7,0-8.64-2.24-8.64-8.01,0-4.73,2.74-8.01,8.64-8.01,5.46,0,8.04,2.55,8.55,6.47h-4.48c-.38-2.27-1.99-2.71-4.07-2.71-2.43,0-4.13.95-4.13,4.26s1.74,4.23,4.13,4.23c1.64,0,3.41-.28,3.85-2.08Z"/>
      <path class="cls-3" d="M109.88,89.99c-.66,1.89-2.24,2.9-4.23,3.15-3.03.38-6.62-.85-6.91-4.29-.35-4.13,3.06-5.33,6.78-5.33h4.35v-1.51c0-1.17-.95-1.86-3.03-1.86-1.86-.03-2.93.6-2.93,1.96h-4.16c-.16-3.94,3.09-5.36,6.97-5.36,4.32,0,7.76,1.39,7.76,4.86v6.94c0,.79.28,1.29,1.04,1.29h.19v3.03h-2.52c-1.42,0-3.22-.79-3.31-2.87ZM105.84,90.08c1.7-.03,3.82-1.23,4.04-2.9v-1.1l-3.69.03c-1.7.03-2.9.38-3,1.96-.09,1.61,1.17,2.05,2.65,2.02Z"/>
      <path class="cls-3" d="M117.48,92.86v-22.58h4.7v22.58h-4.7Z"/>
      <path class="cls-3" d="M143.12,92.86v-3.06c-.82,2.08-3.53,3.22-5.01,3.22-4.73,0-7.6-3.19-7.6-8.01s2.87-8.01,7.6-8.01c1.45,0,4.01.85,4.92,3.09v-9.71h4.7v22.49h-4.61ZM143.05,85.01c0-2.33-1.45-4.26-3.91-4.26s-3.91,1.92-3.91,4.26,1.48,4.23,3.91,4.23,3.91-1.92,3.91-4.23Z"/>
      <path class="cls-3" d="M166.04,87.91c-.47,4.2-4.42,4.95-7.82,4.95-5.01,0-8.61-2.33-8.61-8.14,0-2.52,1.17-7.85,8.48-7.85,5.71,0,8.23,3.41,8.17,9.02h-12.4c.06,2.02,1.39,3.5,4.48,3.5,2.15,0,3.38-.57,3.66-1.48h4.04ZM161.94,83.74c-.19-1.99-1.45-3.12-4.13-3.12-2.11,0-3.53,1.23-3.85,3.12h7.98Z"/>
      <path class="cls-3" d="M187.33,78.92c-.32-2.4-2.43-2.71-4.57-2.81-2.18-.09-4.35.54-4.23,2.27.32,4.07,13.47.95,13.53,9.15,0,5.08-5.49,5.55-8.83,5.55-5.39,0-9.59-1.89-9.62-6.75h4.76c.06,2.02,2.21,2.93,4.42,2.93s4.67-.25,4.54-1.92c-.35-3.91-12.99-.66-13.44-8.52-.25-4.04,2.52-6.59,8.83-6.59,5.58,0,9.02,2.24,9.3,6.69h-4.7Z"/>
      <path class="cls-3" d="M204.17,89.99c-.66,1.89-2.24,2.9-4.23,3.15-3.03.38-6.62-.85-6.91-4.29-.35-4.13,3.06-5.33,6.78-5.33h4.35v-1.51c0-1.17-.95-1.86-3.03-1.86-1.86-.03-2.93.6-2.93,1.96h-4.16c-.16-3.94,3.09-5.36,6.97-5.36,4.32,0,7.76,1.39,7.76,4.86v6.94c0,.79.28,1.29,1.04,1.29h.19v3.03h-2.52c-1.42,0-3.22-.79-3.31-2.87ZM200.13,90.08c1.7-.03,3.82-1.23,4.04-2.9v-1.1l-3.69.03c-1.7.03-2.9.38-3,1.96-.09,1.61,1.17,2.05,2.65,2.02Z"/>
      <path class="cls-3" d="M211.77,92.86v-22.58h4.7v22.58h-4.7Z"/>
      <path class="cls-3" d="M230.31,92.89v-3.53c-.85,2.14-2.49,3.69-4.92,3.72-4.42.06-6.34-2.96-6.34-7v-8.96h4.67v8.64c0,1.99.6,3.5,2.93,3.5s3.5-1.29,3.5-3.56v-8.58h4.7l.03,15.74-4.57.03Z"/>
      <path class="cls-3" d="M249.39,92.86v-3.06c-.82,2.08-3.53,3.22-5.01,3.22-4.73,0-7.6-3.19-7.6-8.01s2.87-8.01,7.6-8.01c1.45,0,4.01.85,4.92,3.09v-9.71h4.7v22.49h-4.61ZM249.33,85.01c0-2.33-1.45-4.26-3.91-4.26s-3.91,1.92-3.91,4.26,1.48,4.23,3.91,4.23,3.91-1.92,3.91-4.23Z"/>
    </g>
  </g>
  <g>
    <path class="cls-1" d="M385.8,42.95v2.36h-2.36c-1.3,0-2.36,1.06-2.36,2.36v2.36c0,1.3,1.06,2.36,2.36,2.36h2.36v2.36c0,1.3,1.06,2.36,2.36,2.36h2.36c1.3,0,2.36-1.06,2.36-2.36v-2.36h2.36c1.3,0,2.36-1.06,2.36-2.36v-2.36c0-1.3-1.06-2.36-2.36-2.36h-2.36v-2.36c0-1.3-1.06-2.36-2.36-2.36h-2.36c-1.3,0-2.36,1.06-2.36,2.36ZM395.23,47.66v2.36h-4.72v4.72h-2.36v-4.72h-4.72v-2.36h4.72v-4.72h2.36v4.72h4.72Z"/>
    <path class="cls-1" d="M401.13,37.05c-3.64,0-7.22-.99-10.34-2.87l-1.45-.87-1.45.87c-3.12,1.87-6.7,2.87-10.34,2.87h-1.18v5.9h-2.36v-1.18c0-4.55-3.7-8.25-8.25-8.25s-8.25,3.7-8.25,8.25v1.18h-16.51c-1.3,0-2.36,1.06-2.36,2.36v9.45c-2.68.08-5.16,1.3-6.83,3.4-1.68,2.1-2.6,4.73-2.6,7.45,0,3.2,1.25,6.2,3.51,8.46l5.93,5.93v24.27c0,1.3,1.06,2.36,2.36,2.36h49.52c1.3,0,2.36-1.06,2.36-2.36v-41.46c5.75-3.02,9.43-8.95,9.43-15.66v-10.09h-1.18ZM385.8,77.87l-2.49,2.81h-14.01v14.15h14.15v-10.75l2.36-2.65v18.12h-40.09v-12.48l1.18,1.18,14.18-14.18c.84-.84,1.54-1.79,2.09-2.81h11.06c.49,1.37,1.79,2.36,3.32,2.36,1.95,0,3.54-1.59,3.54-3.54s-1.59-3.54-3.54-3.54c-1.54,0-2.83.99-3.32,2.36h-10.12c.3-1.06.47-2.18.47-3.32,0-2.68-.92-5.32-2.6-7.42-1.73-2.17-4.32-3.41-7.09-3.41-2.43,0-4.71.94-6.42,2.66l-1.57,1.57-1.18-1.18v-7.77h30.89c.89,5.5,4.29,10.2,9.2,12.78v15.07ZM377.6,90.65l3.49-3.92v5.74h-9.43v-9.43h9.43v.14l-3.59,4.04-2.65-2.65-1.67,1.67,4.42,4.42ZM376.37,70.07c0-.65.53-1.18,1.18-1.18s1.18.53,1.18,1.18-.53,1.18-1.18,1.18-1.18-.53-1.18-1.18ZM359.86,41.77c0-3.25,2.64-5.9,5.9-5.9s5.9,2.64,5.9,5.9v1.18h-2.36v-1.18c0-1.95-1.59-3.54-3.54-3.54s-3.54,1.59-3.54,3.54v1.18h-2.36v-1.18ZM366.93,42.95h-2.36v-1.18c0-.65.53-1.18,1.18-1.18s1.18.53,1.18,1.18v1.18ZM376.37,45.31v1.84c0,.17.02.35.02.52h-33.04v8.25c-.74-.42-1.53-.73-2.36-.92v-9.68h35.37ZM331.56,65.56c0-2.15.74-4.26,2.09-5.94,1.28-1.6,3.2-2.52,5.25-2.52,1.8,0,3.49.7,4.76,1.97l3.23,3.23,3.23-3.23c1.27-1.27,2.96-1.97,4.76-1.97,2.06,0,3.97.92,5.25,2.52,1.35,1.68,2.09,3.79,2.09,5.98,0,1.14-.21,2.25-.59,3.29h-10.75l-2.59,5.18-3.66-10.97-3.26,8.14h-2.74v2.36h4.34l1.46-3.65,3.42,10.26,4.49-8.97h8.04c-.29.4-.61.79-.97,1.15l-12.51,12.51-12.51-12.51c-1.81-1.81-2.81-4.23-2.81-6.83ZM390.52,104.26h-49.52v-21.92l2.36,2.36v17.2h44.81v-38.07c.28.1.55.2.84.29l.34.1.34-.1c.29-.09.56-.19.84-.29v40.43ZM399.95,47.15c0,6.72-4.25,12.55-10.61,14.61-6.36-2.06-10.61-7.89-10.61-14.61v-7.77c3.66-.19,7.23-1.28,10.38-3.17l.23-.14.23.14c3.15,1.89,6.72,2.98,10.38,3.17v7.77Z"/>
    <path class="cls-1" d="M364.58,92.47h2.36v2.36h-2.36v-2.36Z"/>
    <path class="cls-1" d="M359.86,92.47h2.36v2.36h-2.36v-2.36Z"/>
    <path class="cls-1" d="M355.14,92.47h2.36v2.36h-2.36v-2.36Z"/>
    <path class="cls-1" d="M366.93,61.81h7.07v2.36h-7.07v-2.36Z"/>
    <path class="cls-1" d="M366.93,57.1h7.07v2.36h-7.07v-2.36Z"/>
    <path class="cls-1" d="M366.93,52.38h7.07v2.36h-7.07v-2.36Z"/>
  </g>
</svg>