<svg version="1.1" id="Layer_1" xmlns="http://www.w3.org/2000/svg" xmlns:xlink="http://www.w3.org/1999/xlink" x="0px" y="0px"
	 width="100%" viewBox="0 0 225 225" enable-background="new 0 0 225 225" xml:space="preserve">
<path fill="#FFFEFE" opacity="1.000000" stroke="none" 
	d="
M122.000000,1.000000 
	C156.621719,1.000000 191.243454,1.000000 225.932587,1.000000 
	C225.932587,75.999969 225.932587,150.999969 225.929871,226.000000 
	C221.266556,226.000000 216.605927,226.000000 211.626083,225.603561 
	C211.547394,223.616821 211.988892,222.027466 211.996521,220.436050 
	C212.054779,208.282394 212.030701,196.128357 212.027832,183.974426 
	C212.024612,170.327423 207.173935,163.818146 194.158539,160.037659 
	C176.628296,154.945740 159.090988,149.878204 141.564896,144.772064 
	C140.352264,144.418793 139.207642,143.832199 137.911652,143.305435 
	C138.072479,141.590500 138.207016,140.155762 138.375763,138.356369 
	C143.785568,138.356369 148.928925,138.538116 154.055328,138.320419 
	C166.675827,137.784485 176.089005,128.616425 176.273682,115.980576 
	C176.541275,97.672935 176.687943,79.342537 176.085648,61.048203 
	C175.233429,35.161892 158.655365,13.300447 134.131195,4.637919 
	C130.155197,3.233505 126.047058,2.203219 122.000000,1.000000 
z"/>
<path fill="#FFFEFE" opacity="1.000000" stroke="none" 
	d="
M15.000000,226.000000 
	C10.339326,226.000000 5.678652,226.000000 1.013484,226.000000 
	C1.008989,151.102310 1.008989,76.204613 1.008989,1.000000 
	C34.686939,1.000000 68.374809,1.000000 102.383118,1.347197 
	C101.431480,2.077851 100.175591,2.529840 98.884941,2.834665 
	C72.010658,9.181857 51.928543,32.688602 50.907600,60.209099 
	C50.216530,78.837631 50.459572,97.513023 50.732025,116.160927 
	C50.922916,129.226547 60.656471,138.388779 73.851883,138.688675 
	C78.791161,138.800934 83.735123,138.706879 88.457047,138.706879 
	C89.902626,142.824936 88.414803,144.178726 84.985909,145.144775 
	C66.773415,150.275940 48.626331,155.640656 30.475445,160.988480 
	C21.010658,163.777100 15.007657,170.972031 14.937491,180.036575 
	C14.818905,195.356644 14.965123,210.678757 15.000000,226.000000 
z"/>
<path fill="#FF9A06" opacity="1.000000" stroke="none" 
	d="
M15.416667,226.000000 
	C14.965123,210.678757 14.818905,195.356644 14.937491,180.036575 
	C15.007657,170.972031 21.010658,163.777100 30.475445,160.988480 
	C48.626331,155.640656 66.773415,150.275940 84.985909,145.144775 
	C88.414803,144.178726 89.902626,142.824936 88.457047,138.706879 
	C83.735123,138.706879 78.791161,138.800934 73.851883,138.688675 
	C60.656471,138.388779 50.922916,129.226547 50.732025,116.160927 
	C50.459572,97.513023 50.216530,78.837631 50.907600,60.209099 
	C51.928543,32.688602 72.010658,9.181857 98.884941,2.834665 
	C100.175591,2.529840 101.431480,2.077851 102.851776,1.347197 
	C109.021156,1.000000 115.042305,1.000000 121.531731,1.000000 
	C126.047058,2.203219 130.155197,3.233505 134.131195,4.637919 
	C158.655365,13.300447 175.233429,35.161892 176.085648,61.048203 
	C176.687943,79.342537 176.541275,97.672935 176.273682,115.980576 
	C176.089005,128.616425 166.675827,137.784485 154.055328,138.320419 
	C148.928925,138.538116 143.785568,138.356369 138.375763,138.356369 
	C138.207016,140.155762 138.072479,141.590500 137.911652,143.305435 
	C139.207642,143.832199 140.352264,144.418793 141.564896,144.772064 
	C159.090988,149.878204 176.628296,154.945740 194.158539,160.037659 
	C207.173935,163.818146 212.024612,170.327423 212.027832,183.974426 
	C212.030701,196.128357 212.054779,208.282394 211.996521,220.436050 
	C211.988892,222.027466 211.547394,223.616821 211.153427,225.603561 
	C209.611115,226.000000 208.222214,226.000000 206.333282,225.537170 
	C205.794952,211.094711 205.751282,197.115112 205.720779,183.135483 
	C205.706299,176.501648 203.781372,170.395233 197.192902,168.115189 
	C184.860580,163.847366 172.223053,160.461380 159.008698,156.497452 
	C159.008698,170.082016 159.008698,182.951736 159.008698,196.165146 
	C153.495865,196.165146 148.528702,196.080353 143.567841,196.219849 
	C142.185196,196.258728 140.343170,196.525131 139.522324,197.425781 
	C130.920151,206.864197 122.482887,216.452881 114.000000,226.000000 
	C114.000000,226.000000 113.500000,226.000000 113.210815,225.661682 
	C105.187813,216.819824 97.353287,208.404510 89.781380,199.759186 
	C87.502922,197.157715 85.236305,195.847580 81.701721,196.089966 
	C77.136429,196.403015 72.533432,196.166260 67.524643,196.166260 
	C67.524643,182.627823 67.524643,169.911270 67.524643,156.627533 
	C55.669685,160.129013 44.380600,163.418747 33.120178,166.803802 
	C24.585056,169.369614 21.113235,174.036758 21.096373,182.812180 
	C21.072359,195.308624 21.135941,207.805496 21.041525,220.301270 
	C21.027151,222.203369 20.363396,224.100540 20.000000,226.000000 
	C18.611111,226.000000 17.222221,226.000000 15.416667,226.000000 
M123.076599,206.148575 
	C124.407898,204.659302 125.889885,203.277817 127.045219,201.662674 
	C133.052795,193.264099 140.200333,187.340012 151.475555,189.815002 
	C151.848389,189.896851 152.334747,189.461456 152.855957,189.227814 
	C152.855957,177.873001 152.855957,166.570297 152.855957,154.824356 
	C147.681747,153.400040 142.513672,151.977417 136.925430,150.439148 
	C131.743088,169.311493 126.738335,187.537079 121.327530,206.125366 
	C121.323715,206.561813 121.319893,206.998260 121.316071,207.434708 
	C121.737503,207.150589 122.158928,206.866470 123.076599,206.148575 
M69.507599,131.507629 
	C75.906296,131.507629 82.304985,131.507629 90.074646,131.507629 
	C88.371361,129.125107 87.433586,127.127808 85.911354,125.801125 
	C78.794289,119.598328 72.928558,112.199051 71.955002,102.851219 
	C70.670959,90.522263 70.951324,78.016167 70.895309,65.584709 
	C70.883118,62.879444 71.999290,60.041122 73.099632,57.480610 
	C78.329750,45.309994 92.850227,37.172634 104.118637,40.053055 
	C104.183998,40.984047 104.234482,41.971203 104.325111,42.954659 
	C106.486839,66.413063 121.286621,79.895592 144.887543,79.910591 
	C148.490250,79.912880 152.092941,79.910912 156.007172,79.910912 
	C156.007172,82.666557 155.916565,84.807739 156.021637,86.939293 
	C156.806747,102.867058 152.020187,116.377625 139.271164,126.644135 
	C138.087891,127.597000 137.900482,129.786545 136.956451,132.133224 
	C142.834534,132.133224 147.478577,132.194901 152.120453,132.120590 
	C162.299774,131.957611 169.482513,125.652580 169.587021,115.549538 
	C169.785004,96.410698 170.215805,77.203918 168.918961,58.136288 
	C166.920212,28.748600 140.706497,6.619999 110.992386,7.841740 
	C81.042130,9.073190 57.206409,33.430042 57.030369,63.112934 
	C56.928627,80.267326 56.978371,97.422874 57.021107,114.577751 
	C57.042000,122.964081 60.680065,128.033981 69.507599,131.507629 
M92.269554,122.338089 
	C106.764503,131.440384 123.219048,130.939423 136.052185,121.005127 
	C146.493408,112.922440 152.264313,97.367386 148.693802,86.199249 
	C136.391434,87.085350 124.643417,85.229858 114.503777,77.208122 
	C104.468918,69.269272 99.033325,58.835091 97.488060,46.307312 
	C85.463760,47.799889 76.998764,57.179470 76.632278,69.431633 
	C76.423210,76.421227 76.700874,83.424278 76.559227,90.417221 
	C76.294243,103.499535 81.250969,114.012436 92.269554,122.338089 
M130.974518,147.349182 
	C131.308060,142.334442 131.641602,137.319687 132.023499,131.577911 
	C119.311554,136.508118 107.528397,136.332138 94.604103,131.423523 
	C96.215599,158.701157 107.665054,182.503174 113.836502,207.749130 
	C119.492157,187.891251 125.147804,168.033371 130.974518,147.349182 
M98.003838,177.447311 
	C95.500450,168.568390 92.997055,159.689468 90.389557,150.441284 
	C85.478813,151.777130 80.962463,152.797455 76.629219,154.334152 
	C75.575760,154.707748 74.543854,156.759064 74.495956,158.075119 
	C74.272415,164.217865 74.397026,170.373276 74.397102,176.524170 
	C74.397148,180.919159 74.397110,185.314148 74.397110,189.923233 
	C77.965271,189.923233 80.653580,190.207047 83.258110,189.860733 
	C87.860123,189.248825 91.005257,190.946823 93.855850,194.547089 
	C97.496002,199.144547 101.711128,203.286758 105.678436,207.625168 
	C105.924950,207.516556 106.171463,207.407959 106.417976,207.299347 
	C103.669159,197.614532 100.920334,187.929703 98.003838,177.447311 
z"/>
<path fill="#FFFEFD" opacity="1.000000" stroke="none" 
	d="
M20.468658,226.000000 
	C20.363396,224.100540 21.027151,222.203369 21.041525,220.301270 
	C21.135941,207.805496 21.072359,195.308624 21.096373,182.812180 
	C21.113235,174.036758 24.585056,169.369614 33.120178,166.803802 
	C44.380600,163.418747 55.669685,160.129013 67.524643,156.627533 
	C67.524643,169.911270 67.524643,182.627823 67.524643,196.166260 
	C72.533432,196.166260 77.136429,196.403015 81.701721,196.089966 
	C85.236305,195.847580 87.502922,197.157715 89.781380,199.759186 
	C97.353287,208.404510 105.187813,216.819824 112.960815,225.661682 
	C82.312439,226.000000 51.624878,226.000000 20.468658,226.000000 
z"/>
<path fill="#FFFEFD" opacity="1.000000" stroke="none" 
	d="
M114.468658,226.000000 
	C122.482887,216.452881 130.920151,206.864197 139.522324,197.425781 
	C140.343170,196.525131 142.185196,196.258728 143.567841,196.219849 
	C148.528702,196.080353 153.495865,196.165146 159.008698,196.165146 
	C159.008698,182.951736 159.008698,170.082016 159.008698,156.497452 
	C172.223053,160.461380 184.860580,163.847366 197.192902,168.115189 
	C203.781372,170.395233 205.706299,176.501648 205.720779,183.135483 
	C205.751282,197.115112 205.794952,211.094711 205.916611,225.537170 
	C175.645767,226.000000 145.291550,226.000000 114.468658,226.000000 
z"/>
<path fill="#FFFEFC" opacity="1.000000" stroke="none" 
	d="
M69.121414,131.359009 
	C60.680065,128.033981 57.042000,122.964081 57.021107,114.577751 
	C56.978371,97.422874 56.928627,80.267326 57.030369,63.112934 
	C57.206409,33.430042 81.042130,9.073190 110.992386,7.841740 
	C140.706497,6.619999 166.920212,28.748600 168.918961,58.136288 
	C170.215805,77.203918 169.785004,96.410698 169.587021,115.549538 
	C169.482513,125.652580 162.299774,131.957611 152.120453,132.120590 
	C147.478577,132.194901 142.834534,132.133224 136.956451,132.133224 
	C137.900482,129.786545 138.087891,127.597000 139.271164,126.644135 
	C152.020187,116.377625 156.806747,102.867058 156.021637,86.939293 
	C155.916565,84.807739 156.007172,82.666557 156.007172,79.910912 
	C152.092941,79.910912 148.490250,79.912880 144.887543,79.910591 
	C121.286621,79.895592 106.486839,66.413063 104.325111,42.954659 
	C104.234482,41.971203 104.183998,40.984047 104.118637,40.053055 
	C92.850227,37.172634 78.329750,45.309994 73.099632,57.480610 
	C71.999290,60.041122 70.883118,62.879444 70.895309,65.584709 
	C70.951324,78.016167 70.670959,90.522263 71.955002,102.851219 
	C72.928558,112.199051 78.794289,119.598328 85.911354,125.801125 
	C87.433586,127.127808 88.371361,129.125107 90.074646,131.507629 
	C82.304985,131.507629 75.906296,131.507629 69.121414,131.359009 
z"/>
<path fill="#FFFEFC" opacity="1.000000" stroke="none" 
	d="
M91.964966,122.143188 
	C81.250969,114.012436 76.294243,103.499535 76.559227,90.417221 
	C76.700874,83.424278 76.423210,76.421227 76.632278,69.431633 
	C76.998764,57.179470 85.463760,47.799889 97.488060,46.307312 
	C99.033325,58.835091 104.468918,69.269272 114.503777,77.208122 
	C124.643417,85.229858 136.391434,87.085350 148.693802,86.199249 
	C152.264313,97.367386 146.493408,112.922440 136.052185,121.005127 
	C123.219048,130.939423 106.764503,131.440384 91.964966,122.143188 
z"/>
<path fill="#FFFDFA" opacity="1.000000" stroke="none" 
	d="
M130.888992,147.762329 
	C125.147804,168.033371 119.492157,187.891251 113.836502,207.749130 
	C107.665054,182.503174 96.215599,158.701157 94.604103,131.423523 
	C107.528397,136.332138 119.311554,136.508118 132.023499,131.577911 
	C131.641602,137.319687 131.308060,142.334442 130.888992,147.762329 
z"/>
<path fill="#FFFBF7" opacity="1.000000" stroke="none" 
	d="
M98.087677,177.846100 
	C100.920334,187.929703 103.669159,197.614532 106.417976,207.299347 
	C106.171463,207.407959 105.924950,207.516556 105.678436,207.625168 
	C101.711128,203.286758 97.496002,199.144547 93.855850,194.547089 
	C91.005257,190.946823 87.860123,189.248825 83.258110,189.860733 
	C80.653580,190.207047 77.965271,189.923233 74.397110,189.923233 
	C74.397110,185.314148 74.397148,180.919159 74.397102,176.524170 
	C74.397026,170.373276 74.272415,164.217865 74.495956,158.075119 
	C74.543854,156.759064 75.575760,154.707748 76.629219,154.334152 
	C80.962463,152.797455 85.478813,151.777130 90.389557,150.441284 
	C92.997055,159.689468 95.500450,168.568390 98.087677,177.846100 
z"/>
<path fill="#FFFDFB" opacity="1.000000" stroke="none" 
	d="
M121.733589,205.762665 
	C126.738335,187.537079 131.743088,169.311493 136.925430,150.439148 
	C142.513672,151.977417 147.681747,153.400040 152.855957,154.824356 
	C152.855957,166.570297 152.855957,177.873001 152.855957,189.227814 
	C152.334747,189.461456 151.848389,189.896851 151.475555,189.815002 
	C140.200333,187.340012 133.052795,193.264099 127.045219,201.662674 
	C125.889885,203.277817 124.407898,204.659302 122.622696,206.154449 
	C122.023720,206.027756 121.878654,205.895218 121.733589,205.762665 
z"/>
<path fill="#FFFDFB" opacity="1.000000" stroke="none" 
	d="
M122.374573,206.371338 
	C122.158928,206.866470 121.737503,207.150589 121.316071,207.434708 
	C121.319893,206.998260 121.323715,206.561813 121.530563,205.944016 
	C121.878654,205.895218 122.023720,206.027756 122.374573,206.371338 
z"/>
</svg>